<svg xmlns="http://www.w3.org/2000/svg" version="1.0" preserveAspectRatio="xMidYMid meet" viewBox="3 63.98 133.96 128.23">

<g transform="translate(0.000000,256.000000) scale(0.100000,-0.100000)" fill="#000000" stroke="black" stroke-width="1" >
<path d="M570 1908 c-3 -148 -77 -619 -98 -618 -4 1 -18 7 -32 15 -68 39 -187 3 -225 -68 -11 -20 -24 -37 -28 -37 -5 0 -35 16 -68 36 -61 38 -89 39 -89 4 0 -11 28 -76 62 -145 l62 -124 -19 -68 c-10 -37 -19 -86 -19 -108 -1 -36 1 -40 27 -43 17 -2 52 10 94 32 61 32 68 34 77 19 20 -36 92 -106 135 -131 38 -22 62 -27 138 -32 79 -4 92 -3 89 10 -3 8 -6 71 -8 140 l-3 125 27 12 c48 24 55 12 62 -110 4 -62 4 -119 1 -128 -3 -9 -20 -23 -38 -32 -21 -10 -26 -16 -14 -16 9 -1 35 17 57 40 38 39 40 40 62 25 29 -21 57 -20 87 3 24 18 24 18 62 -21 35 -37 39 -39 54 -24 9 9 23 16 31 16 8 0 14 5 14 10 0 6 -10 10 -22 10 -13 0 -34 9 -48 20 -32 25 -61 25 -93 0 -46 -36 -101 -15 -77 29 6 12 14 21 19 21 4 0 30 31 57 70 49 69 49 69 89 65 22 -3 65 -6 94 -7 53 -3 56 -2 79 32 l24 35 -36 3 c-38 3 -41 22 -4 22 23 0 88 63 88 85 0 11 -7 12 -32 4 -18 -5 -44 -9 -58 -8 -20 1 -17 4 15 14 22 8 52 14 68 14 22 1 27 6 27 26 0 32 32 95 76 154 49 64 45 75 -16 51 -78 -31 -137 -63 -239 -130 -51 -33 -95 -59 -98 -56 -3 2 0 20 5 38 29 89 26 218 -4 218 -8 0 -19 -11 -24 -25 -5 -14 -11 -25 -12 -25 -2 0 -3 37 -3 83 0 65 -5 91 -22 123 -24 46 -71 104 -83 104 -4 0 -10 -24 -14 -54 -11 -94 -18 -95 -36 -5 -23 112 -69 201 -149 287 -30 32 -71 43 -71 20z m-153 -609 c67 -25 124 -116 109 -174 -7 -29 8 -35 84 -35 97 0 107 -11 64 -67 -34 -45 -59 -42 -110 13 l-42 46 -37 -41 c-60 -66 -139 -76 -213 -28 -38 26 -72 90 -72 138 1 103 120 185 217 148z m-288 -87 c49 -34 54 -41 57 -80 5 -55 25 -92 68 -128 34 -28 35 -31 27 -73 -5 -24 -5 -56 -1 -72 7 -25 5 -30 -27 -49 -69 -40 -105 -52 -120 -38 -11 11 -8 30 14 107 l26 93 -66 134 c-37 74 -67 136 -67 139 0 15 42 -1 89 -33z m734 -364 c11 -40 -3 -64 -49 -86 l-44 -22 0 34 c0 19 -3 41 -6 49 -3 10 7 19 33 30 51 21 60 21 66 -5z m-203 -92 c0 -46 -10 -56 -55 -56 -24 0 -35 17 -35 55 0 18 8 25 38 33 20 5 40 10 45 11 4 1 7 -19 7 -43z m345 -50 c33 -23 34 -25 15 -31 -22 -7 -45 7 -61 37 -14 25 2 23 46 -6z"/>
<path d="M343 1173 c-7 -3 -13 -13 -13 -23 0 -19 17 -30 38 -23 6 3 12 13 12 23 0 19 -17 30 -37 23z"/>
</g>
</svg>